<svg height="137.4402" viewBox="0 0 36.364385 36.364387" width="137.4402" xmlns="http://www.w3.org/2000/svg" xmlns:xlink="http://www.w3.org/1999/xlink"><linearGradient id="a" gradientUnits="userSpaceOnUse" x1="187.70070381166" x2="195.80894102195" y1="209.18227788359" y2="230.27287152472"><stop offset="0" stop-color="#f76262"/><stop offset="1" stop-color="#216583"/></linearGradient><linearGradient id="b" gradientTransform="matrix(.57373659 0 0 .60292974 -263.25555 88.088617)" gradientUnits="userSpaceOnUse" x1="812.41528" x2="819.29419" y1="210.35223" y2="196.70703"><stop offset="0" stop-color="#216583"/><stop offset="1" stop-color="#f76262"/></linearGradient><g transform="matrix(.81373138 0 0 .81373138 -143.292627 -152.950419)"><path d="m198.43805 188.24282c-12.18561-.00031-22.06407 9.87815-22.06376 22.06376.0003 12.18518 9.87858 22.06297 22.06376 22.06266 12.18475-.0003 22.06236-9.87791 22.06266-22.06266.00031-12.18518-9.87748-22.06346-22.06266-22.06376z" fill="#fefefe" fill-rule="evenodd"/><path d="m198.43805 188.24282c-5.39884-.00014-10.3448 1.93887-14.1794 5.15853-4.82038 4.04736-7.88453 10.11846-7.88436 16.90523.0003 12.18518 9.87858 22.06297 22.06376 22.06266 12.18475-.0003 22.06236-9.87791 22.06266-22.06266.00031-12.18518-9.87748-22.06346-22.06266-22.06376zm0 2.08124c11.0357.00039 19.98164 8.94682 19.98142 19.98252-.00039 11.03527-8.94615 19.98103-19.98142 19.98142-11.03571.00023-19.98214-8.94571-19.98253-19.98142-.00022-11.03614 8.94639-19.98275 19.98253-19.98252z" fill="#596e79" fill-rule="evenodd"/><circle cx="198.4377" cy="210.3063" fill="#4d4c7d" fill-opacity=".254545" fill-rule="evenodd" r="18.002666"/><path d="m212.57157 204.51177c-1.84336-.0252-4.22178.84613-6.9745 3.08061-4.51114 3.66184-8.01767.95951-8.5444.50988 1.39193 1.95822 2.83635 3.95379 5.68583 5.02244 5.56515 2.08718 10.63333-1.32558 12.92369-6.77838.0527-.12522.17567-.43377.17567-.43377-.6554-.91695-1.83848-1.38114-3.26635-1.40078z" fill="url(#b)"/><path d="m189.80038 203.11293c-5.38851-.001-10.4039 6.4722-8.07795 13.80783a17.978223 17.978223 0 0 0 16.71607 11.37098 17.978223 17.978223 0 0 0 17.97783-17.97783 17.978223 17.978223 0 0 0 -.57988-4.47473c-2.19982 5.4257-7.38721 8.89686-13.09751 6.85897-4.40552-1.57225-5.45338-5.25541-8.13936-7.65042-1.50413-1.34122-3.16864-1.93453-4.7992-1.9348z" fill="url(#a)" fill-rule="evenodd"/><path d="m198.43805 192.30321a18.002666 18.002666 0 0 0 -2.45995.18881 21.054205 21.054205 0 0 1 14.99787 20.15595 21.054205 21.054205 0 0 1 -5.58729 14.24595 18.002666 18.002666 0 0 0 11.05163-16.58734 18.002666 18.002666 0 0 0 -18.00226-18.00337z" fill="#fff" fill-opacity=".454546" fill-rule="evenodd"/><ellipse cx="9.657464" cy="291.09387" fill="#fff" fill-opacity=".454902" rx="1.598162" ry="2.441195" transform="matrix(.77990059 -.62590341 .62590341 .77990059 0 0)"/><ellipse cx="76.064613" cy="264.13437" fill="#fff" fill-opacity=".454902" rx="2.774984" ry="1.677285" transform="matrix(.8822913 -.47070379 .47070379 .8822913 0 0)"/><ellipse cx="-.865855" cy="274.13693" fill="#fff" fill-opacity=".454902" rx="1.706793" ry="1.031637" transform="matrix(.72941374 -.6840728 .6840728 .72941374 0 0)"/><g fill="#216583"><circle cx="190.24593" cy="211.07059" fill-opacity=".515151" r=".421517"/><circle cx="187.1683" cy="210.47968" fill-opacity=".481818" r=".948412"/><circle cx="191.86174" cy="216.40977" fill-opacity=".378788" r=".245885"/><circle cx="189.13411" cy="214.81686" fill-opacity=".557576" r=".421517"/><circle cx="200.63055" cy="218.00563" fill-opacity=".257576" r=".948412"/></g></g></svg>